<svg width="36" height="34" viewBox="0 0 36 34" fill="none" xmlns="http://www.w3.org/2000/svg">
    <g clip-path="url(#clip0_116_3455)">
        <path d="M17.7233 13.5013C15.6017 13.5066 13.569 14.3347 12.0719 15.8037C10.5748 17.2726 9.73581 19.2622 9.73927 21.3352C9.73532 23.4085 10.5741 25.3986 12.0712 26.8679C13.5684 28.3372 15.6014 29.1655 17.7233 29.1708C19.845 29.1651 21.8775 28.3365 23.3742 26.8672C24.871 25.398 25.7095 23.4082 25.7056 21.3352C25.709 19.2625 24.8703 17.2732 23.3736 15.8043C21.8769 14.3354 19.8447 13.5071 17.7233 13.5013ZM17.7233 27.5339C16.0457 27.5286 14.4389 26.8727 13.2559 25.7104C12.073 24.548 11.4107 22.9744 11.4146 21.3352C11.4112 19.6963 12.0737 18.1231 13.2566 16.9612C14.4395 15.7992 16.046 15.1436 17.7233 15.1383C19.4003 15.1441 21.0064 15.7999 22.1889 16.9618C23.3714 18.1237 24.0336 19.6966 24.0302 21.3352C24.0332 22.9734 23.3707 24.5459 22.1883 25.7074C21.0058 26.8689 19.4 27.5245 17.7233 27.5302V27.5339Z" fill="url(#paint0_linear_116_3455)" />
        <path d="M17.0182 22.2719L15.6742 20.9587L14.4902 22.1173L17.0182 24.5873L21.605 20.1056L20.421 18.947L17.0182 22.2719Z" fill="url(#paint1_linear_116_3455)" />
        <path d="M33.5316 3.44847H31.7613V2.35716C31.7608 1.73405 31.5073 1.13661 31.0563 0.69601C30.6054 0.255409 29.9939 0.00766835 29.3562 0.00718663C28.7187 0.00766878 28.1074 0.255468 27.6568 0.696121C27.2061 1.13677 26.953 1.73422 26.953 2.35716V3.44847H20.1789V2.35716C20.1809 1.73422 19.9297 1.136 19.4804 0.693984C19.0312 0.251966 18.4207 0.00232016 17.7831 -8.75987e-05C17.4661 -0.00176467 17.1519 0.057767 16.8585 0.175091C16.5651 0.292414 16.2983 0.465218 16.0734 0.683576C15.8485 0.901934 15.67 1.16155 15.5481 1.4475C15.4263 1.73346 15.3634 2.04012 15.3632 2.34988V3.4412H9.30203V2.34988C9.30203 1.72695 9.0489 1.1295 8.59826 0.688844C8.14762 0.248191 7.53635 0.00039455 6.89881 -8.75987e-05C6.26109 0.00039412 5.64963 0.248132 5.1987 0.688733C4.74776 1.12933 4.49421 1.72678 4.49372 2.34988V3.4412H2.47024C2.14536 3.44168 1.82375 3.50467 1.52378 3.62659C1.22381 3.74851 0.95136 3.92697 0.721977 4.15177C0.492593 4.37658 0.310773 4.64332 0.186897 4.93678C0.0630201 5.23024 -0.00048648 5.54467 2.80585e-06 5.86211V31.5863C0.000987539 32.2261 0.26156 32.8395 0.724607 33.2919C1.18765 33.7443 1.8154 33.999 2.47024 33.9999H33.5316C34.1865 33.999 34.8142 33.7443 35.2773 33.2919C35.7403 32.8395 36.0009 32.2261 36.0019 31.5863V5.86211C36.0009 5.22227 35.7403 4.60891 35.2773 4.15648C34.8142 3.70404 34.1865 3.44944 33.5316 3.44847ZM28.6284 2.35716C28.6284 2.16837 28.705 1.9873 28.8414 1.85364C28.9779 1.71998 29.163 1.64464 29.3562 1.64416C29.5496 1.64464 29.7349 1.71992 29.8717 1.85353C30.0084 1.98713 30.0854 2.16821 30.0859 2.35716V5.38374C30.0854 5.57253 30.0083 5.75341 29.8716 5.88673C29.7348 6.02005 29.5494 6.09492 29.3562 6.09492C29.1632 6.09492 28.9781 6.01999 28.8416 5.88662C28.7051 5.75325 28.6284 5.57236 28.6284 5.38374V2.35716ZM17.046 2.35716C17.0465 2.16821 17.1235 1.98713 17.2602 1.85353C17.397 1.71992 17.5823 1.64464 17.7757 1.64416C17.9689 1.64464 18.154 1.71998 18.2905 1.85364C18.4269 1.9873 18.5035 2.16837 18.5035 2.35716V5.38374C18.5035 5.57236 18.4269 5.75325 18.2904 5.88662C18.1539 6.01999 17.9687 6.09492 17.7757 6.09492C17.5825 6.09492 17.3972 6.02005 17.2604 5.88673C17.1236 5.75341 17.0465 5.57253 17.046 5.38374V2.35716ZM6.16909 2.35716C6.16958 2.16821 6.24662 1.98713 6.38336 1.85353C6.5201 1.71992 6.70543 1.64464 6.89881 1.64416C7.09202 1.64464 7.27715 1.71998 7.41359 1.85364C7.55004 1.9873 7.62666 2.16837 7.62666 2.35716V5.38374C7.62666 5.57236 7.54998 5.75325 7.41348 5.88662C7.27698 6.01999 7.09185 6.09492 6.89881 6.09492C6.7056 6.09492 6.52027 6.02005 6.38348 5.88673C6.24668 5.75341 6.16958 5.57253 6.16909 5.38374V2.35716ZM2.47024 5.08545H4.49372V5.37647C4.49471 5.99926 4.74847 6.59624 5.19936 7.03644C5.65024 7.47665 6.26141 7.72414 6.89881 7.72462C7.53603 7.72414 8.14702 7.47659 8.5976 7.03633C9.04819 6.59607 9.30154 5.99909 9.30203 5.37647V5.08545H15.3632V5.37647C15.3636 5.68608 15.4267 5.99255 15.5487 6.27829C15.6707 6.56404 15.8492 6.82343 16.0741 7.0416C16.2989 7.25977 16.5656 7.43241 16.8589 7.54962C17.1522 7.66683 17.4663 7.7263 17.7831 7.72462C18.4204 7.72414 19.0313 7.47659 19.4819 7.03633C19.9325 6.59607 20.1859 5.99909 20.1864 5.37647V5.08545H26.9604V5.37647C26.9609 5.99909 27.2143 6.59607 27.6649 7.03633C28.1155 7.47659 28.7264 7.72414 29.3637 7.72462C30.0011 7.72414 30.6122 7.47665 31.0631 7.03644C31.514 6.59624 31.7678 5.99926 31.7688 5.37647V5.08545H33.5391C33.7497 5.08593 33.9516 5.16791 34.1006 5.31346C34.2495 5.459 34.3334 5.65627 34.3339 5.86211V8.94326H1.67537V5.86211C1.67587 5.65627 1.75977 5.459 1.90873 5.31346C2.05769 5.16791 2.25958 5.08593 2.47024 5.08545ZM33.5316 32.3629H2.47024C2.25943 32.3629 2.05725 32.2811 1.90819 32.1355C1.75912 31.9898 1.67537 31.7923 1.67537 31.5863V10.5802H34.3265V31.5863C34.3265 31.7923 34.2427 31.9898 34.0937 32.1355C33.9446 32.2811 33.7424 32.3629 33.5316 32.3629Z" fill="url(#paint2_linear_116_3455)" />
    </g>
    <defs>
        <linearGradient id="paint0_linear_116_3455" x1="28.0799" y1="10.9042" x2="18.0853" y2="29.3673" gradientUnits="userSpaceOnUse">
            <stop stop-color="#FF00B7" />
            <stop offset="1" stop-color="#FF6D00" />
        </linearGradient>
        <linearGradient id="paint1_linear_116_3455" x1="18.0476" y1="18.947" x2="18.0476" y2="24.5873" gradientUnits="userSpaceOnUse">
            <stop stop-color="#FF00B7" />
            <stop offset="1" stop-color="#FF6D00" />
        </linearGradient>
        <linearGradient id="paint2_linear_116_3455" x1="38.88" y1="-8.44203" x2="-0.37766" y2="37.8349" gradientUnits="userSpaceOnUse">
            <stop stop-color="#FF00B7" />
            <stop offset="1" stop-color="#FF6D00" />
        </linearGradient>
        <clipPath id="clip0_116_3455">
            <rect width="36" height="34" fill="white" />
        </clipPath>
    </defs>
</svg>
    