<svg width="36" height="34" viewBox="0 0 36 34" fill="none" xmlns="http://www.w3.org/2000/svg">
    <g clip-path="url(#clip0_116_3461)">
        <path d="M35.769 15.6755L36 15.1504V14.6542L35.9802 14.6163C35.8861 14.4093 35.7274 14.2383 35.5279 14.129C35.3284 14.0197 35.0988 13.9779 34.8736 14.01C34.5577 14.0298 34.2328 14.0244 33.9187 14.01H33.6696C33.5563 14.0196 33.4438 13.9843 33.3564 13.9117C33.2689 13.8391 33.2135 13.7351 33.2021 13.622L33.0847 12.9291C32.9818 12.3264 32.8771 11.7237 32.7815 11.1246C32.7591 10.9445 32.6965 10.7717 32.5984 10.619C32.5003 10.4663 32.3692 10.3375 32.2146 10.2422C31.4601 9.75502 30.7705 9.29128 30.1171 8.82572C30.0155 8.74531 29.9431 8.6337 29.9113 8.50813C29.7542 7.69972 29.6062 6.84981 29.4744 5.98186C29.4502 5.80824 29.3874 5.64225 29.2905 5.49611C29.1937 5.34996 29.0653 5.22738 28.9148 5.13736C28.0827 4.59602 27.4166 4.13948 26.8155 3.71724C26.7194 3.64612 26.6496 3.54525 26.6169 3.43033C26.4833 2.73741 26.3678 2.03005 26.2559 1.34615L26.1873 0.93473C26.0934 0.369928 25.8407 0.147978 25.6457 0.0613629C25.4508 -0.0252521 25.1222 -0.0631462 24.6547 0.241811L19.9902 3.24807C14.9755 6.47809 9.78753 9.81999 4.70605 13.1348C3.84138 13.6996 2.87563 14.1977 1.67702 14.0244C1.50921 14.0056 1.34004 14.0019 1.17158 14.0136H0.991061C0.826793 14.0021 0.662253 14.0319 0.51247 14.1003C0.362688 14.1687 0.232439 14.2735 0.133618 14.4052C0.052043 14.5506 0.00815389 14.7141 0.00594693 14.8808C0.00373997 15.0476 0.0432867 15.2122 0.120983 15.3597C0.231097 15.6214 0.343013 15.8848 0.456737 16.1465C0.68238 16.6734 0.917049 17.2165 1.13367 17.7561C1.17246 17.8677 1.17246 17.9891 1.13367 18.1007C0.826792 18.864 0.489232 19.658 0.131813 20.4592C0.0556832 20.6171 0.0161466 20.7901 0.0161466 20.9654C0.0161466 21.1406 0.0556832 21.3136 0.131813 21.4715C0.296082 21.8324 0.453128 22.2095 0.610176 22.5795C0.767223 22.9494 0.947738 23.3734 1.12645 23.7686C1.16426 23.8414 1.184 23.9221 1.184 24.0041C1.184 24.0861 1.16426 24.1668 1.12645 24.2396C0.985646 24.5518 0.852065 24.8675 0.72029 25.1833C0.548801 25.5857 0.371897 26.0026 0.178746 26.4032C0.079215 26.5952 0.026366 26.8081 0.0244843 27.0244C0.0226025 27.2407 0.0717414 27.4544 0.167916 27.6482C0.335794 28.0091 0.492842 28.37 0.644474 28.7309C0.796106 29.0918 0.940517 29.4311 1.10118 29.7757C1.14882 29.8691 1.17276 29.9727 1.17087 30.0775C1.16898 30.1823 1.14133 30.285 1.09034 30.3766C0.834014 30.9414 0.588513 31.5225 0.350234 32.0837L0.139033 32.5799C-0.0793897 33.0978 0.0144779 33.419 0.139033 33.5976C0.263588 33.7763 0.516307 33.9892 1.08312 33.9892H9.92833C18.2609 33.9892 26.5922 33.9892 34.9224 33.9892C35.4639 33.9892 35.8123 33.7835 36.0054 33.3414L36.0217 33.3071V32.8127L36.0054 32.7784C35.926 32.5979 35.852 32.4301 35.778 32.2551C35.6094 31.8553 35.4146 31.4671 35.1949 31.093C34.7834 30.3947 34.7852 29.7667 35.1949 29.0557C35.411 28.6659 35.5992 28.2613 35.7581 27.8449C35.8322 27.6645 35.9062 27.484 35.9838 27.3036L36 27.2675V26.7622L35.7672 26.2353C35.4386 25.4943 35.1131 24.7533 34.7906 24.0122C34.7853 23.9952 34.7853 23.9769 34.7906 23.9599C35.1083 23.2219 35.4296 22.4874 35.7527 21.7512L35.9946 21.199V20.7064L35.7581 20.1651C35.4332 19.4252 35.1083 18.6872 34.7888 17.9456C34.7843 17.929 34.7843 17.9116 34.7888 17.895C35.1137 17.1606 35.4404 16.419 35.769 15.6755ZM19.1219 5.89885L19.1418 5.92953C19.2248 6.05043 19.3061 6.17133 19.3891 6.29043C19.705 6.74155 20.2014 6.86425 20.6256 6.59177C21.0498 6.3193 21.1527 5.81404 20.8711 5.34127C20.7989 5.21856 20.7213 5.09947 20.6383 4.98037L20.6166 4.94609L24.6385 2.35305C24.6583 2.46493 24.6782 2.575 24.6962 2.68327C24.7775 3.12717 24.8533 3.54762 24.9092 3.97167C24.9281 4.18777 24.9978 4.39636 25.1126 4.58043C25.2274 4.7645 25.3841 4.91885 25.5699 5.0309C25.8966 5.23661 26.2234 5.46036 26.5411 5.6769C26.8588 5.89344 27.1801 6.11359 27.5086 6.3211C27.6047 6.37655 27.6854 6.4551 27.7434 6.54964C27.8014 6.64418 27.8349 6.7517 27.8408 6.86245C27.9004 7.25582 27.9689 7.65281 28.0357 8.03716C28.1025 8.42151 28.1747 8.83113 28.2325 9.22812C28.2572 9.40787 28.3223 9.57969 28.423 9.73065C28.5236 9.88161 28.6573 10.0078 28.8138 10.0997C29.4185 10.4949 30.0774 10.9388 30.8861 11.4963C31.0088 11.5812 31.0666 11.6533 31.0666 11.6768C31.1875 12.3029 31.2904 12.9255 31.4005 13.5823L31.4709 13.9919H6.59423L19.1219 5.89885ZM33.0685 30.5787C33.2616 31.0046 33.4403 31.4304 33.6317 31.8815C33.675 31.988 33.7201 32.0945 33.7671 32.2027H28.9907V32.1757C28.9907 32.0223 28.9907 31.8707 28.9907 31.7209C28.9935 31.6043 28.9732 31.4882 28.9308 31.3794C28.8883 31.2706 28.8247 31.1714 28.7436 31.0874C28.6625 31.0035 28.5654 30.9365 28.4582 30.8904C28.3509 30.8442 28.2355 30.8199 28.1188 30.8187C27.8846 30.8211 27.6609 30.9156 27.496 31.0818C27.3311 31.248 27.2383 31.4724 27.2379 31.7065C27.2288 31.8527 27.2379 31.997 27.2379 32.1504V32.1865H2.21856C2.25647 32.0981 2.29257 32.0061 2.32867 31.9231C2.48933 31.5333 2.64096 31.1652 2.81967 30.8079C2.94228 30.5809 3.00647 30.3269 3.00647 30.0689C3.00647 29.811 2.94228 29.557 2.81967 29.33C2.49655 28.6606 2.21495 27.9712 1.90627 27.2025C1.86747 27.0915 1.86747 26.9707 1.90627 26.8597C2.20231 26.1271 2.53085 25.3547 2.91173 24.5012C2.98789 24.343 3.02744 24.1697 3.02744 23.9942C3.02744 23.8186 2.98789 23.6453 2.91173 23.4871C2.53807 22.6498 2.20954 21.8793 1.90627 21.1287C1.86661 21.0172 1.86661 20.8955 1.90627 20.784C2.18787 20.0839 2.51099 19.3242 2.92437 18.3931C2.9948 18.2451 3.03135 18.0833 3.03135 17.9194C3.03135 17.7555 2.9948 17.5937 2.92437 17.4457C2.72942 17.009 2.54529 16.5723 2.35033 16.1104L2.21495 15.7892H27.2162C27.2162 15.93 27.2162 16.0725 27.2162 16.2151C27.2343 16.7745 27.6079 17.1678 28.1188 17.1624C28.6296 17.157 28.96 16.7726 28.9762 16.2205C28.9762 16.0851 28.9762 15.9516 28.9762 15.8091V15.7892H33.7599C33.7165 15.8903 33.675 15.9913 33.6317 16.0906C33.4512 16.5236 33.2707 16.9332 33.0901 17.3393C33.0012 17.5175 32.9548 17.7139 32.9548 17.9131C32.9548 18.1123 33.0012 18.3087 33.0901 18.4869C33.4115 19.1906 33.7328 19.9413 34.0721 20.7786C34.1118 20.8901 34.1118 21.0118 34.0721 21.1232C33.7761 21.8595 33.4458 22.6318 33.0667 23.4817C32.9905 23.6396 32.951 23.8126 32.951 23.9879C32.951 24.1631 32.9905 24.3361 33.0667 24.494C33.4277 25.3006 33.7653 26.0946 34.0721 26.8525C34.1109 26.9641 34.1109 27.0855 34.0721 27.1971C33.7743 27.9333 33.4458 28.7057 33.0667 29.5556C32.9889 29.715 32.9486 29.89 32.9489 30.0674C32.9492 30.2447 32.9901 30.4196 33.0685 30.5787Z" fill="url(#paint0_linear_116_3461)" />
        <path d="M20.3545 20.0387C18.7966 20.0387 10.2763 20.0387 8.66614 20.0387C8.10474 20.0387 7.69678 20.4104 7.69678 20.9193C7.69678 21.4281 8.09211 21.7908 8.66253 21.7945C9.26184 21.7945 10.9948 21.7945 12.1374 21.7945H17.5745H20.3508C20.9213 21.7945 21.3202 21.4336 21.3202 20.9211C21.3202 20.4086 20.9159 20.0405 20.3545 20.0387Z" fill="url(#paint1_linear_116_3461)" />
        <path d="M20.3349 25.4829C19.694 25.4829 15.7335 25.4829 13.8363 25.4829H12.1485C11.0059 25.4829 9.28015 25.4829 8.68084 25.4829C8.08153 25.4829 7.70967 25.8294 7.69704 26.3364C7.69223 26.4493 7.71057 26.5619 7.75093 26.6674C7.79129 26.773 7.8528 26.8691 7.9317 26.95C8.03126 27.0459 8.14896 27.1209 8.2779 27.1708C8.40684 27.2207 8.54444 27.2444 8.68265 27.2405H20.3367C20.8999 27.2405 21.306 26.8796 21.3205 26.3797C21.3256 26.2685 21.3082 26.1575 21.2691 26.0532C21.23 25.949 21.1701 25.8538 21.093 25.7734C20.9925 25.6767 20.8737 25.6012 20.7434 25.5513C20.6132 25.5014 20.4742 25.4781 20.3349 25.4829Z" fill="url(#paint2_linear_116_3461)" />
        <path d="M27.514 23.1389C27.6799 23.2773 27.89 23.3515 28.1061 23.3482H28.1855C28.3986 23.3341 28.5986 23.24 28.7452 23.0847C28.8918 22.9294 28.9743 22.7245 28.9762 22.5109C28.9852 22.3305 28.9762 21.0998 28.9762 20.0532V19.8204C28.9762 19.7447 28.9762 19.6689 28.9762 19.5931C28.9762 19.4271 28.9762 19.2538 28.9762 19.0824C28.9689 18.862 28.8778 18.6527 28.7215 18.4972C28.5652 18.3416 28.3554 18.2515 28.135 18.2451C27.918 18.236 27.7056 18.3096 27.5408 18.4509C27.3759 18.5923 27.2709 18.7909 27.2468 19.0066C27.2125 19.548 27.2089 22.049 27.2468 22.6156C27.2548 22.7161 27.2824 22.814 27.3283 22.9038C27.3741 22.9936 27.4372 23.0735 27.514 23.1389Z" fill="url(#paint3_linear_116_3461)" />
        <path d="M28.9797 26.1974C28.9797 26.1217 28.9797 26.0459 28.9797 25.9719C28.9797 25.8041 28.9797 25.6308 28.9797 25.4594C28.9799 25.239 28.895 25.027 28.7426 24.8676C28.5903 24.7083 28.3823 24.6139 28.162 24.6041C27.9384 24.586 27.7168 24.6568 27.5451 24.8011C27.3735 24.9453 27.2656 25.1514 27.245 25.3746C27.2107 25.9159 27.2107 28.4169 27.245 28.9439C27.2634 29.1575 27.3632 29.3558 27.5238 29.4979C27.6844 29.64 27.8935 29.7149 28.1078 29.7072H28.162C28.3823 29.6978 28.5903 29.6035 28.7425 29.444C28.8947 29.2845 28.979 29.0722 28.9779 28.8518C28.9869 28.6822 28.9779 27.567 28.9779 26.506L28.9797 26.1974Z" fill="url(#paint4_linear_116_3461)" />
        <path d="M23.6725 8.98808L23.5281 8.78958L23.3964 8.60914C23.3007 8.472 23.2032 8.33125 23.0949 8.19772C22.959 8.02399 22.762 7.9086 22.544 7.87507C22.326 7.84154 22.1034 7.89239 21.9215 8.01727C21.7404 8.13682 21.6112 8.32051 21.5599 8.53141C21.5087 8.74231 21.5392 8.96478 21.6454 9.15409C21.9342 9.61423 23.3927 11.6461 23.7538 12.0773C23.8191 12.1558 23.8994 12.2205 23.9898 12.2679C24.0803 12.3153 24.1792 12.3443 24.2809 12.3534H24.3495C24.5693 12.3492 24.7807 12.2681 24.947 12.1243C25.1114 11.9883 25.2183 11.7952 25.2464 11.5838C25.2746 11.3723 25.2218 11.158 25.0986 10.9838C24.9993 10.8196 24.2845 9.83077 23.6725 8.98808Z" fill="url(#paint5_linear_116_3461)" />
    </g>
    <defs>
        <linearGradient id="paint0_linear_116_3461" x1="34.6816" y1="-2.11157e-05" x2="18.268" y2="34.1115" gradientUnits="userSpaceOnUse">
            <stop stop-color="#FF00B7" />
            <stop offset="1" stop-color="#FF6D00" />
        </linearGradient>
        <linearGradient id="paint1_linear_116_3461" x1="18.5917" y1="14.5208" x2="14.5673" y2="21.8269" gradientUnits="userSpaceOnUse">
            <stop stop-color="#FF00B7" />
            <stop offset="1" stop-color="#FF6D00" />
        </linearGradient>
        <linearGradient id="paint2_linear_116_3461" x1="21.4523" y1="21.6042" x2="14.5618" y2="27.3049" gradientUnits="userSpaceOnUse">
            <stop stop-color="#FF00B7" />
            <stop offset="1" stop-color="#FF6D00" />
        </linearGradient>
        <linearGradient id="paint3_linear_116_3461" x1="31.106" y1="17" x2="28.1464" y2="23.3699" gradientUnits="userSpaceOnUse">
            <stop stop-color="#FF00B7" />
            <stop offset="1" stop-color="#FF6D00" />
        </linearGradient>
        <linearGradient id="paint4_linear_116_3461" x1="31.821" y1="18.7708" x2="28.1635" y2="29.7287" gradientUnits="userSpaceOnUse">
            <stop stop-color="#FF00B7" />
            <stop offset="1" stop-color="#FF6D00" />
        </linearGradient>
        <linearGradient id="paint5_linear_116_3461" x1="23.3947" y1="7.86499" x2="23.3947" y2="12.3534" gradientUnits="userSpaceOnUse">
            <stop stop-color="#FF00B7" />
            <stop offset="1" stop-color="#FF6D00" />
        </linearGradient>
        <clipPath id="clip0_116_3461">
            <rect width="36" height="34" fill="white" />
        </clipPath>
    </defs>
</svg>
    