<svg width="47" height="47" viewBox="0 0 47 47" fill="none" xmlns="http://www.w3.org/2000/svg">
    <rect width="46.3448" height="46.3448" rx="23.1724" fill="url(#paint0_linear_45_748)" />
    <path fill-rule="evenodd" clip-rule="evenodd" d="M19.6699 14.7269C20.576 14.6852 20.8648 14.6759 23.1728 14.6759C25.4808 14.6759 25.7697 14.6859 26.6749 14.7269C27.5802 14.7678 28.1981 14.9123 28.7388 15.1216C29.305 15.3355 29.8187 15.67 30.2435 16.1026C30.676 16.5266 31.0097 17.0395 31.2229 17.6064C31.433 18.1471 31.5767 18.7651 31.6184 19.6688C31.6601 20.5764 31.6694 20.8653 31.6694 23.1725C31.6694 25.4804 31.6593 25.7693 31.6184 26.6754C31.5775 27.5791 31.433 28.197 31.2229 28.7377C31.0097 29.3047 30.6755 29.8185 30.2435 30.2431C29.8187 30.6757 29.305 31.0094 28.7388 31.2226C28.1981 31.4326 27.5802 31.5763 26.6765 31.618C25.7697 31.6597 25.4808 31.669 23.1728 31.669C20.8648 31.669 20.576 31.659 19.6699 31.618C18.7662 31.5771 18.1483 31.4326 17.6076 31.2226C17.0406 31.0093 16.5268 30.6751 16.1021 30.2431C15.6699 29.8188 15.3354 29.3053 15.122 28.7385C14.9126 28.1978 14.769 27.5798 14.7272 26.6761C14.6855 25.7685 14.6763 25.4797 14.6763 23.1725C14.6763 20.8645 14.6863 20.5756 14.7272 19.6703C14.7682 18.7651 14.9126 18.1471 15.122 17.6064C15.3357 17.0396 15.6705 16.5261 16.1029 16.1018C16.527 15.6696 17.0402 15.3351 17.6068 15.1216C18.1475 14.9123 18.7654 14.7686 19.6692 14.7269H19.6699ZM26.6062 16.2563C25.7102 16.2153 25.4414 16.2068 23.1728 16.2068C20.9042 16.2068 20.6354 16.2153 19.7394 16.2563C18.9106 16.2941 18.4611 16.4324 18.1614 16.549C17.7652 16.7035 17.4817 16.8866 17.1843 17.1839C16.9024 17.4582 16.6855 17.792 16.5494 18.161C16.4327 18.4607 16.2945 18.9103 16.2566 19.7391C16.2157 20.6351 16.2072 20.9039 16.2072 23.1725C16.2072 25.441 16.2157 25.7098 16.2566 26.6058C16.2945 27.4346 16.4327 27.8842 16.5494 28.1839C16.6853 28.5523 16.9024 28.8868 17.1843 29.161C17.4585 29.4429 17.793 29.66 18.1614 29.7959C18.4611 29.9125 18.9106 30.0508 19.7394 30.0886C20.6354 30.1296 20.9035 30.1381 23.1728 30.1381C25.4422 30.1381 25.7102 30.1296 26.6062 30.0886C27.435 30.0508 27.8845 29.9125 28.1842 29.7959C28.5805 29.6414 28.864 29.4584 29.1613 29.161C29.4433 28.8868 29.6603 28.5523 29.7963 28.1839C29.9129 27.8842 30.0512 27.4346 30.089 26.6058C30.13 25.7098 30.1384 25.441 30.1384 23.1725C30.1384 20.9039 30.13 20.6351 30.089 19.7391C30.0512 18.9103 29.9129 18.4607 29.7963 18.161C29.6418 17.7648 29.4587 17.4813 29.1613 17.1839C28.8871 16.9021 28.5532 16.6851 28.1842 16.549C27.8845 16.4324 27.435 16.2941 26.6062 16.2563ZM22.0876 25.7917C22.6937 26.044 23.3685 26.0781 23.9969 25.888C24.6253 25.698 25.1683 25.2958 25.533 24.7499C25.8978 24.2041 26.0617 23.5485 25.9968 22.8952C25.9319 22.242 25.6422 21.6315 25.1772 21.168C24.8808 20.8718 24.5224 20.645 24.1278 20.5039C23.7332 20.3628 23.3122 20.3109 22.8951 20.3521C22.4781 20.3932 22.0753 20.5263 21.7159 20.7418C21.3565 20.9572 21.0493 21.2497 20.8164 21.5982C20.5836 21.9466 20.4309 22.3423 20.3694 22.7569C20.3078 23.1714 20.339 23.5944 20.4605 23.9955C20.5821 24.3965 20.7911 24.7656 21.0724 25.0762C21.3538 25.3868 21.7005 25.6312 22.0876 25.7917ZM20.0847 20.0843C20.4902 19.6788 20.9717 19.3571 21.5015 19.1376C22.0314 18.9182 22.5993 18.8052 23.1728 18.8052C23.7463 18.8052 24.3142 18.9182 24.8441 19.1376C25.374 19.3571 25.8554 19.6788 26.2609 20.0843C26.6665 20.4899 26.9882 20.9713 27.2076 21.5012C27.4271 22.031 27.5401 22.5989 27.5401 23.1725C27.5401 23.746 27.4271 24.3139 27.2076 24.8437C26.9882 25.3736 26.6665 25.855 26.2609 26.2606C25.4419 27.0796 24.3311 27.5397 23.1728 27.5397C22.0146 27.5397 20.9037 27.0796 20.0847 26.2606C19.2657 25.4415 18.8056 24.3307 18.8056 23.1725C18.8056 22.0142 19.2657 20.9034 20.0847 20.0843ZM28.5087 19.4556C28.6092 19.3608 28.6896 19.2468 28.7452 19.1204C28.8009 18.9939 28.8306 18.8576 28.8326 18.7194C28.8346 18.5813 28.8089 18.4442 28.757 18.3161C28.705 18.1881 28.6279 18.0718 28.5303 17.9741C28.4326 17.8765 28.3163 17.7994 28.1883 17.7474C28.0602 17.6955 27.9231 17.6698 27.785 17.6718C27.6468 17.6738 27.5105 17.7035 27.384 17.7591C27.2576 17.8148 27.1436 17.8952 27.0488 17.9957C26.8644 18.1912 26.7635 18.4508 26.7674 18.7194C26.7713 18.9881 26.8798 19.2446 27.0698 19.4346C27.2598 19.6246 27.5163 19.7331 27.785 19.737C28.0536 19.7409 28.3132 19.64 28.5087 19.4556Z" fill="white" />
    <defs>
        <linearGradient id="paint0_linear_45_748" x1="36.4138" y1="-2.97931" x2="-14.4133" y2="25.3861" gradientUnits="userSpaceOnUse">
            <stop stop-color="#5051D0" />
            <stop stop-color="#CF109E" />
            <stop offset="0.96875" stop-color="#F4B223" />
        </linearGradient>
    </defs>
</svg>
    