<svg width="48" height="47" viewBox="0 0 48 47" fill="none" xmlns="http://www.w3.org/2000/svg">
    <rect x="0.689697" width="46.3448" height="46.3448" rx="23.1724" fill="white" />
    <g clip-path="url(#clip0_45_758)">
        <path d="M20.4142 30.3726C27.4064 30.3726 31.2204 24.5471 31.2204 19.4939C31.2204 19.3296 31.2204 19.1654 31.2204 19.0011C31.9634 18.4595 32.6048 17.7893 33.1147 17.0216C32.4214 17.3294 31.6866 17.5321 30.9343 17.6232C31.7272 17.1448 32.3206 16.3929 32.604 15.5071C31.8589 15.9531 31.0433 16.267 30.1927 16.435C29.6716 15.8764 28.9957 15.4882 28.2528 15.3209C27.5099 15.1536 26.7341 15.2148 26.0262 15.4967C25.3183 15.7785 24.7108 16.268 24.2825 16.9016C23.8542 17.5352 23.6249 18.2838 23.6243 19.0502C23.623 19.3438 23.6558 19.6366 23.7218 19.9226C22.2118 19.8464 20.7346 19.4513 19.3861 18.763C18.0377 18.0747 16.8481 17.1086 15.8947 15.9274C15.4085 16.769 15.2594 17.7657 15.4779 18.7142C15.6964 19.6627 16.266 20.4915 17.0706 21.0318C16.4674 21.0132 15.8775 20.8494 15.3501 20.554C15.349 20.5703 15.349 20.5867 15.3501 20.6031C15.3504 21.4858 15.6539 22.3412 16.2093 23.0243C16.7646 23.7074 17.5376 24.1761 18.3971 24.3509C17.8381 24.5037 17.2519 24.5263 16.6829 24.417C16.927 25.1757 17.3996 25.839 18.0352 26.3149C18.6709 26.7908 19.4379 27.0557 20.2299 27.0727C18.8843 28.1348 17.2232 28.711 15.5133 28.7088C15.2109 28.7093 14.9088 28.6915 14.6085 28.6554C16.3449 29.7781 18.3654 30.3742 20.429 30.3726" fill="#12AAFF" />
    </g>
    <defs>
        <clipPath id="clip0_45_758">
            <rect width="18.5104" height="15.1448" fill="white" transform="translate(14.5929 15.2277)" />
        </clipPath>
    </defs>
</svg>
    