<svg width="343" height="463" viewBox="0 0 343 463" fill="none" xmlns="http://www.w3.org/2000/svg">
    <path d="M335.418 0.793854L335.217 0.656037L335.074 0.85312L218.951 160.867L218.943 160.877L218.832 161.015L218.712 161.164L218.824 161.319L340.483 329.046L241.437 329.046L169.65 230.013L169.647 230.009L169.424 229.713L169.22 229.443L169.022 229.717L0.797699 461.557L0.647003 461.765L0.85852 461.91L1.28986 462.206L1.49066 462.344L1.6337 462.147L169.224 231.178L240.765 329.842L240.768 329.846L240.857 329.964L240.932 330.064L241.057 330.064L342 330.064L342.49 330.064L342.202 329.667L219.975 161.172L335.91 1.44293L336.061 1.23523L335.849 1.08997L335.418 0.793854Z" fill="#D9D9D9" stroke="#D9D9D9" stroke-width="0.5"/>
    </svg>
    